HIERARCHY
ROOT hip
{
  OFFSET 0 0 0
  CHANNELS 6 Xposition Yposition Zposition Zrotation Yrotation Xrotation
  JOINT abdomen
  {
    OFFSET 0 20.6881 -0.73152
    CHANNELS 3 Zrotation Xrotation Yrotation
    JOINT chest
    {
      OFFSET 0 11.7043 -0.48768
      CHANNELS 3 Zrotation Xrotation Yrotation
      JOINT neck
      {
        OFFSET 0 22.1894 -2.19456
        CHANNELS 3 Zrotation Xrotation Yrotation
        JOINT head
        {
          OFFSET -0.24384 7.07133 1.2192
          CHANNELS 3 Zrotation Xrotation Yrotation
          JOINT leftEye
          {
            OFFSET 4.14528 8.04674 8.04672
            CHANNELS 3 Zrotation Xrotation Yrotation
            End Site
            {
              OFFSET 1 0 0
            }
          }
          JOINT rightEye
          {
            OFFSET -3.6576 8.04674 8.04672
            CHANNELS 3 Zrotation Xrotation Yrotation
            End Site
            {
              OFFSET 1 0 0
            }
          }
        }
      }
      JOINT rCollar
      {
        OFFSET -2.68224 19.2634 -4.8768
        CHANNELS 3 Zrotation Xrotation Yrotation
        JOINT rShldr
        {
          OFFSET -8.77824 -1.95073 1.46304
          CHANNELS 3 Zrotation Xrotation Yrotation
          JOINT rForeArm
          {
            OFFSET -28.1742 -1.7115 0.48768
            CHANNELS 3 Zrotation Xrotation Yrotation
            JOINT rHand
            {
              OFFSET -22.5879 0.773209 7.07136
              CHANNELS 3 Zrotation Xrotation Yrotation
              JOINT rThumb1
              {
                OFFSET -1.2192 -0.487915 3.41376
                CHANNELS 3 Zrotation Xrotation Yrotation
                JOINT rThumb2
                {
                  OFFSET -3.37035 -0.52449 3.41376
                  CHANNELS 3 Zrotation Xrotation Yrotation
                  End Site
                  {
                    OFFSET -1.78271 -1.18214 1.43049
                  }
                }
              }
              JOINT rIndex1
              {
                OFFSET -7.75947 0.938293 5.60832
                CHANNELS 3 Zrotation Xrotation Yrotation
                JOINT rIndex2
                {
                  OFFSET -2.54057 -0.884171 1.56538
                  CHANNELS 3 Zrotation Xrotation Yrotation
                  End Site
                  {
                    OFFSET -1.62519 -0.234802 1.16502
                  }
                }
              }
              JOINT rMid1
              {
                OFFSET -8.24714 1.18213 3.41376
                CHANNELS 3 Zrotation Xrotation Yrotation
                JOINT rMid2
                {
                  OFFSET -3.10165 -0.590103 1.0647
                  CHANNELS 3 Zrotation Xrotation Yrotation
                  End Site
                  {
                    OFFSET -2.48547 -0.328903 0.83742
                  }
                }
              }
              JOINT rRing1
              {
                OFFSET -8.82822 0.546677 1.51678
                CHANNELS 3 Zrotation Xrotation Yrotation
                JOINT rRing2
                {
                  OFFSET -2.60934 -0.819778 -0.0198488
                  CHANNELS 3 Zrotation Xrotation Yrotation
                  End Site
                  {
                    OFFSET -2.33842 -0.294052 0.168128
                  }
                }
              }
              JOINT rPinky1
              {
                OFFSET -8.27202 -0.0477905 -0.4584
                CHANNELS 3 Zrotation Xrotation Yrotation
                JOINT rPinky2
                {
                  OFFSET -1.82734 -0.647385 -0.700984
                  CHANNELS 3 Zrotation Xrotation Yrotation
                  End Site
                  {
                    OFFSET -1.69225 -0.51767 -0.607171
                  }
                }
              }
            }
          }
        }
      }
      JOINT lCollar
      {
        OFFSET 2.68224 19.2634 -4.8768
        CHANNELS 3 Zrotation Xrotation Yrotation
        JOINT lShldr
        {
          OFFSET 8.77824 -1.95073 1.46304
          CHANNELS 3 Zrotation Xrotation Yrotation
          JOINT lForeArm
          {
            OFFSET 28.1742 -1.7115 0.48768
            CHANNELS 3 Zrotation Xrotation Yrotation
            JOINT lHand
            {
              OFFSET 22.5879 0.773209 7.07136
              CHANNELS 3 Zrotation Xrotation Yrotation
              JOINT lThumb1
              {
                OFFSET 1.2192 -0.487915 3.41376
                CHANNELS 3 Zrotation Xrotation Yrotation
                JOINT lThumb2
                {
                  OFFSET 3.37035 -0.52449 3.41376
                  CHANNELS 3 Zrotation Xrotation Yrotation
                  End Site
                  {
                    OFFSET 1.78271 -1.18214 1.43049
                  }
                }
              }
              JOINT lIndex1
              {
                OFFSET 7.75947 0.938293 5.60832
                CHANNELS 3 Zrotation Xrotation Yrotation
                JOINT lIndex2
                {
                  OFFSET 2.54057 -0.884171 1.56538
                  CHANNELS 3 Zrotation Xrotation Yrotation
                  End Site
                  {
                    OFFSET 1.62519 -0.234802 1.16502
                  }
                }
              }
              JOINT lMid1
              {
                OFFSET 8.24714 1.18213 3.41376
                CHANNELS 3 Zrotation Xrotation Yrotation
                JOINT lMid2
                {
                  OFFSET 3.10165 -0.590103 1.0647
                  CHANNELS 3 Zrotation Xrotation Yrotation
                  End Site
                  {
                    OFFSET 2.48547 -0.328903 0.83742
                  }
                }
              }
              JOINT lRing1
              {
                OFFSET 8.82822 0.546677 1.51678
                CHANNELS 3 Zrotation Xrotation Yrotation
                JOINT lRing2
                {
                  OFFSET 2.60934 -0.819778 -0.0198488
                  CHANNELS 3 Zrotation Xrotation Yrotation
                  End Site
                  {
                    OFFSET 2.33842 -0.294052 0.168128
                  }
                }
              }
              JOINT lPinky1
              {
                OFFSET 8.27202 -0.0477905 -0.4584
                CHANNELS 3 Zrotation Xrotation Yrotation
                JOINT lPinky2
                {
                  OFFSET 1.82734 -0.647385 -0.700984
                  CHANNELS 3 Zrotation Xrotation Yrotation
                  End Site
                  {
                    OFFSET 1.69225 -0.51767 -0.607171
                  }
                }
              }
            }
          }
        }
      }
    }
  }
  JOINT rButtock
  {
    OFFSET -8.77824 4.35084 1.2192
    CHANNELS 3 Zrotation Xrotation Yrotation
    JOINT rThigh
    {
      OFFSET 0 -1.70687 -2.19456
      CHANNELS 3 Zrotation Xrotation Yrotation
      JOINT rShin
      {
        OFFSET 0 -36.8199 0.73152
        CHANNELS 3 Zrotation Xrotation Yrotation
        JOINT rFoot
        {
          OFFSET 0.73152 -45.1104 -5.12064
          CHANNELS 3 Zrotation Xrotation Yrotation
          End Site
          {
            OFFSET -1.1221 -3.69964 12.103
          }
        }
      }
    }
  }
  JOINT lButtock
  {
    OFFSET 8.77824 4.35084 1.2192
    CHANNELS 3 Zrotation Xrotation Yrotation
    JOINT lThigh
    {
      OFFSET 0 -1.70687 -2.19456
      CHANNELS 3 Zrotation Xrotation Yrotation
      JOINT lShin
      {
        OFFSET 0 -36.8199 0.73152
        CHANNELS 3 Zrotation Xrotation Yrotation
        JOINT lFoot
        {
          OFFSET -0.73152 -45.1104 -5.12064
          CHANNELS 3 Zrotation Xrotation Yrotation
          End Site
          {
            OFFSET 1.1221 -3.69964 12.103
          }
        }
      }
    }
  }
}
MOTION
Frames:	4
Frame Time:	0.00833333
-39.073 83.7107 233.965 0.0 0.0 0.0 0.572867 -0.00324252 0.0163893 0.158165 -0.00505501 0.0274051 -1.45509e-14 -1.59028e-15 -1.61512e-16 -4.3832e-14 -6.36111e-15 -5.04727e-16 -0.0 0.0 0.0 -0.0 0.0 0.0 -7.15776e-15 8.92978e-18 1.98785e-16 -1.5155e-13 1.49089e-16 -2.18663e-15 -2.63708e-12 7.96729e-13 9.54166e-15 -3.0187e-11 -7.56351e-13 -4.45278e-13 -7.12084e-11 8.91798e-14 -9.12819e-13 -1.22979e-10 1.55847e-13 -1.56722e-12 -7.12055e-11 9.22361e-14 -9.22361e-13 7.73091 5.47488 0.417314 -7.12096e-11 8.88567e-14 -9.00097e-13 2.90554 0.965183 0.102902 -7.12059e-11 8.92543e-14 -9.04073e-13 10.2786 0.731801 0.0259123 -7.1216e-11 9.10434e-14 -8.90555e-13 2.22167 -0.733487 -0.20892 -7.35401e-15 9.70628e-18 -3.97569e-16 -1.53874e-13 1.2424e-16 -2.98177e-15 -2.64135e-12 -7.81621e-13 -1.90833e-14 -3.01968e-11 8.35169e-13 -3.88028e-13 -7.12294e-11 1.15899e-13 -8.96916e-13 -1.23012e-10 2.00375e-13 -1.54575e-12 -7.12365e-11 1.17681e-13 -8.84194e-13 -7.73091 5.47488 -0.417314 -7.12286e-11 1.15494e-13 -9.03278e-13 -2.90554 0.965183 -0.102902 -7.12353e-11 1.15891e-13 -9.04868e-13 -10.2786 0.731801 -0.0259123 -7.12245e-11 1.16885e-13 -9.16e-13 -2.22167 -0.733487 0.20892 -2.03217e-16 0.0 -3.88251e-19 0.920344 -4.54484 -0.0776167 -0.00189435 2.68072 -0.00762751 -0.489786 1.8645 0.093639 2.03217e-16 0.0 3.88251e-19 -0.0478219 -2.33548 0.0218171 0.00803223 -1.32111 0.0687536 0.48138 3.65688 -0.128873
-37.859 79.8796 220.394 -172.62 -4.8322 -171.829 4.33932 -0.444314 1.83747 -1.02524 -2.26837 0.396589 -7.67047 8.44717 -2.153 19.709 -10.7205 -2.37448 -0.0 0.0 0.0 -0.0 0.0 0.0 -2.13299e-14 -2.91897e-14 1.19554e-14 22.8874 10.3521 -2.9413 -21.6684 -19.5151 15.0725 0.0032709 -1.27303 -0.178754 -1.36687e-10 -1.71124e-10 -1.41821e-11 -2.36689e-10 -3.04361e-10 -2.38051e-11 -1.36683e-10 -1.71118e-10 -1.41907e-11 7.73091 5.47488 0.417314 -1.36688e-10 -1.71125e-10 -1.41691e-11 2.90554 0.965183 0.102902 -1.36682e-10 -1.71122e-10 -1.41744e-11 10.2786 0.731801 0.0259123 -1.36693e-10 -1.71125e-10 -1.41635e-11 2.22167 -0.733487 -0.20892 -2.14552e-14 -2.91894e-14 1.14064e-14 -23.057 8.94099 4.56465 20.7579 -18.5587 -15.143 -0.281575 -11.8451 1.5401 -2.01037e-10 -2.88123e-10 -1.31572e-11 -3.46757e-10 -4.75392e-10 -2.85837e-11 -2.01044e-10 -2.8813e-10 -1.31442e-11 -7.73091 5.47488 -0.417314 -2.01036e-10 -2.8813e-10 -1.31628e-11 -2.90554 0.965183 -0.102902 -2.01043e-10 -2.88123e-10 -1.31654e-11 -10.2786 0.731801 -0.0259123 -2.01031e-10 -2.88121e-10 -1.31756e-11 -2.22167 -0.733487 0.20892 -2.03217e-16 0.0 -3.88251e-19 5.02761 -9.61143 -2.03483 0.106767 11.224 0.223915 -0.146419 -4.61432 3.57231 2.03217e-16 0.0 3.88251e-19 3.63719 -18.53 1.25325 -0.0808262 21.8075 -0.239606 0.245498 4.06983 -1.8745
-37.7701 79.8792 220.278 -172.342 -4.5198 -172.234 8.33771 -0.921585 3.74467 -2.24512 -4.65868 0.783485 -15.0595 17.3357 -4.5897 39.5083 -21.9895 -5.17777 -0.0 0.0 0.0 -0.0 0.0 0.0 -3.80873e-14 -6.26126e-14 2.46586e-14 48.3275 21.2023 -6.41922 -31.8039 -35.2576 36.6882 -0.00194909 -2.63089 -0.369722 -2.0633e-10 -2.27001e-10 -4.23395e-11 -3.57636e-10 -4.10595e-10 -7.1669e-11 -2.06326e-10 -2.26994e-10 -4.23471e-11 7.73091 5.47488 0.417314 -2.06332e-10 -2.27004e-10 -4.2326e-11 2.90554 0.965183 0.102902 -2.06323e-10 -2.26999e-10 -4.2333e-11 10.2786 0.731801 0.0259123 -2.06334e-10 -2.27006e-10 -4.2325e-11 2.22167 -0.733487 -0.20892 -3.81367e-14 -6.26129e-14 2.41554e-14 -49.04 18.1736 9.78352 30.7316 -33.5146 -36.2112 0.176724 -24.4336 3.4175 -3.3447e-10 -6.39384e-10 -1.46015e-11 -5.77082e-10 -1.05986e-09 -3.72656e-11 -3.34477e-10 -6.39402e-10 -1.4588e-11 -7.73091 5.47488 -0.417314 -3.3447e-10 -6.394e-10 -1.46063e-11 -2.90554 0.965183 -0.102902 -3.34475e-10 -6.39384e-10 -1.46101e-11 -10.2786 0.731801 -0.0259123 -3.34463e-10 -6.39382e-10 -1.46194e-11 -2.22167 -0.733487 0.20892 -2.03217e-16 0.0 -3.88251e-19 8.97406 -14.9623 -4.17868 0.140613 20.2692 0.488333 1.08208 -11.3886 7.34578 2.03217e-16 0.0 3.88251e-19 8.42902 -35.5381 2.93946 0.197785 46.1567 -0.764921 0.0258214 4.5022 -3.71957
-37.6945 79.8827 220.133 -172.055 -4.3667 -172.634 11.9562 -1.32108 5.48092 -3.30402 -6.79382 1.14205 -20.9416 25.1906 -7.06361 56.0669 -31.9202 -8.25398 -0.0 0.0 0.0 -0.0 0.0 0.0 -4.96742e-14 -8.75869e-14 3.54687e-14 72.2762 30.7015 -10.1089 -30.3767 -39.8532 61.7752 -0.014062 -3.81893 -0.537323 -2.67643e-10 -5.13549e-10 -4.07206e-11 -4.6411e-10 -9.13395e-10 -6.82808e-11 -2.67639e-10 -5.13539e-10 -4.07274e-11 7.73091 5.47488 0.417314 -2.67646e-10 -5.13552e-10 -4.0707e-11 2.90554 0.965183 0.102902 -2.67635e-10 -5.13546e-10 -4.07152e-11 10.2786 0.731801 0.0259123 -2.67646e-10 -5.13556e-10 -4.07095e-11 2.22167 -0.733487 -0.20892 -4.96577e-14 -8.75877e-14 3.50144e-14 -73.8077 26.1031 15.0982 30.0457 -38.091 -60.0864 1.43103 -35.4205 5.5518 -4.60652e-10 -8.646e-10 -3.76778e-11 -7.94246e-10 -1.42658e-09 -8.26597e-11 -4.60659e-10 -8.64626e-10 -3.76642e-11 -7.73091 5.47488 -0.417314 -4.60652e-10 -8.64622e-10 -3.76818e-11 -2.90554 0.965183 -0.102902 -4.60657e-10 -8.64599e-10 -3.76864e-11 -10.2786 0.731801 -0.0259123 -4.60644e-10 -8.64597e-10 -3.76949e-11 -2.22167 -0.733487 0.20892 -2.03217e-16 0.0 -3.88251e-19 12.1473 -19.6548 -6.22821 0.0924206 28.3087 0.765714 2.97766 -17.295 10.998 2.03217e-16 0.0 3.88251e-19 14.1407 -50.7985 5.57637 1.47533 68.0511 -2.15371 -0.150712 4.88079 -5.37163
